# xmcd
#
# Track frame offsets:
#	150
#	18293
#	36566
#	49485
#	63633
#	85282
#	98347
#	114683
#	126901
#	146873
#
# Disc length: 2166 seconds
#
# Revision: 3
# Processed by: cddbd v1.4PL0 Copyright (c) Steve Scherf et al.
# Submitted via: dBpowerAMP V4.0
#
DISCID=9208740a
DTITLE=Quim Barreiros - Depois Da Uma
DYEAR=1900
DGENRE=country
TTITLE0=Depois Da Uma
TTITLE1=Meias De Renda
TTITLE2=Aeroporto De Mosquito
TTITLE3=O de Bêbado Não Tem Dono
TTITLE4=Toda A Gente Já Sabia(O Gurufim Da Cabana)
TTITLE5=Vais Gostar (Lá No Pé Da Serra)
TTITLE6=Haja Comida(Jacú)
TTITLE7=Chifre Inflamado
TTITLE8=Pobre De Mim "Pinga ni Mim"
TTITLE9=Pela Estrada
EXTD=Musica Pupular Portuguesa
EXTT0=
EXTT1=
EXTT2=
EXTT3=
EXTT4=
EXTT5=
EXTT6=
EXTT7=
EXTT8=
EXTT9=
PLAYORDER=
